<svg width="276" height="67" xmlns="http://www.w3.org/2000/svg"><g fill="none"><path d="M179.373 49.182c2.95 0 5.435-1.002 7.397-2.965 1.962-2.06 2.951-4.57 2.951-7.612 0-3.04-.99-5.553-2.951-7.535-1.962-2.038-4.446-3.04-7.397-3.04-2.935 0-5.417 1-7.379 3.04-1.962 1.982-2.932 4.495-2.932 7.535s.97 5.552 2.93 7.612c1.964 1.963 4.446 2.965 7.38 2.965zm10.348-27.1h7.06v33.05h-7.06V50.37c-2.69 3.78-6.482 5.63-11.45 5.63-4.502 0-8.313-1.663-11.509-5.025-3.193-3.379-4.762-7.552-4.762-12.37 0-4.892 1.57-8.987 4.765-12.369 3.193-3.362 7.004-5.024 11.506-5.024 4.968 0 8.76 1.851 11.45 5.552v-4.681zm34.425 6.873h-8.107V44.82c0 4.23 2.748 4.154 8.107 3.89v6.421c-10.797 1.322-15.167-1.663-15.167-10.31V28.954h-6.015V22.08h6.015l-.012-9.256h7.072v9.256h8.107v6.874zm6.463 26.176h7.062v-33.05h-7.06v33.05h-.002zm.318-39.32c-1.775-1.85-1.775-4.646 0-6.423A4.399 4.399 0 0 1 234.13 8a4.4 4.4 0 0 1 3.203 1.388c1.756 1.777 1.756 4.57-.074 6.424-1.754 1.774-4.501 1.774-6.332 0zm18.006 35.164c-3.268-3.38-4.911-7.479-4.911-12.37 0-4.965 1.643-9.045 4.913-12.369 3.344-3.362 7.452-5.024 12.347-5.024 6.35 0 11.975 3.325 14.586 8.539l-6.068 3.567c-1.514-3.175-4.65-5.08-8.574-5.08-2.877 0-5.287.98-7.268 2.965-1.885 1.982-2.874 4.439-2.874 7.402 0 2.965.989 5.421 2.874 7.404 1.981 1.984 4.391 2.965 7.268 2.965 3.867 0 7.115-1.963 8.684-5.08l6.09 3.494C273.2 52.675 267.634 56 261.282 56c-4.895 0-9.003-1.663-12.347-5.025h-.002z" fill="#100C48"/><path fill="#2BBDF7" d="M32 28.336L41.64 49l14.35-7.994L56 41V25z"/><path fill="#2891F9" d="M74.028 12.096l-8.715-3.332L56 8v50.825L69.972 67 81 44.087l-6.956-22.156z"/><path fill="#2BBDF7" d="M73.246 8l-3.242 8.174H70V67l14-8.174V8z"/><path fill="#2B6DEF" d="M70 0L56 8.001 70 16l14-7.999z"/><path fill="#2891F9" d="M41.998 32.532v-.004L27.999 16.654 0 8v50.822L13.996 67l4-28.125L28 40.716v-.008l14 8.176V32.532z"/><path fill="#100C48" d="M147.862 13l-13.894 22.968L120.13 13H112v42h7.548V26.123l12.496 20.753h3.84l12.504-20.68v28.802H156V13z"/><path fill="#2B6DEF" d="M14.007 0L0 8.248 42 33l6.346-3.738L56 24.75z"/><path fill="#2BBDF7" d="M14.002 33H14v34l14-8.065V41.067z"/></g></svg>